<svg width="250" height="250" viewBox="0 0 250 250" fill="none" xmlns="http://www.w3.org/2000/svg">
<rect width="250" height="250" rx="125" fill="black"/>
<g clip-path="url(#clip0_171_2)">
<path d="M60.3574 68.3872L25.5196 126.468L60.3574 182.613H108.742C99.4286 171.929 84.7367 151.16 73.9833 126.468M60.3574 68.3872H108.742L73.9833 126.468M60.3574 68.3872C60.3574 88.2374 66.1158 108.402 73.9833 126.468" stroke="#EF3340" stroke-width="16"/>
<path d="M188.471 182.613L223.578 124.532L188.471 68.3872H139.711C149.096 79.0706 163.902 99.8404 174.739 124.532M188.471 182.613H139.711L174.739 124.532M188.471 182.613C188.471 162.763 182.667 142.597 174.739 124.532" stroke="#EF3340" stroke-width="16"/>
</g>
<defs>
<clipPath id="clip0_171_2">
<rect width="209" height="123" fill="white" transform="translate(20 64)"/>
</clipPath>
</defs>
</svg>
